<?xml version="1.0" standalone="no"?>
<!DOCTYPE svg PUBLIC "-//W3C//DTD SVG 20010904//EN"
 "http://www.w3.org/TR/2001/REC-SVG-20010904/DTD/svg10.dtd">
<svg version="1.0" xmlns="http://www.w3.org/2000/svg"
 width="312.000000pt" height="312.000000pt" viewBox="0 0 312.000000 312.000000"
 preserveAspectRatio="xMidYMid meet">
<metadata>
Created by potrace 1.14, written by Peter Selinger 2001-2017
</metadata>
<g transform="translate(0.000000,312.000000) scale(0.100000,-0.100000)"
fill="#000000" stroke="none">
<path d="M1320 2460 l0 -60 -60 0 -60 0 0 -60 0 -60 -60 0 -60 0 0 -60 0 -60
-60 0 -60 0 0 -60 0 -60 -60 0 -60 0 0 -60 0 -60 -60 0 -60 0 0 -180 0 -180
-60 0 -60 0 0 -60 0 -60 -60 0 -60 0 0 -120 0 -120 -120 0 -120 0 0 -60 0 -60
-60 0 -60 0 0 -120 0 -120 60 0 60 0 0 -60 0 -60 360 0 360 0 0 60 0 60 120 0
120 0 0 60 0 60 60 0 60 0 0 -180 0 -180 60 0 60 0 0 -60 0 -60 120 0 120 0 0
-60 0 -60 180 0 180 0 0 60 0 60 60 0 60 0 0 120 0 120 -60 0 -60 0 0 60 0 60
-60 0 -60 0 0 60 0 60 360 0 360 0 0 -60 0 -60 -60 0 -60 0 0 -60 0 -60 -60 0
-60 0 0 -60 0 -60 60 0 60 0 0 -60 0 -60 180 0 180 0 0 60 0 60 60 0 60 0 0
240 0 240 -60 0 -60 0 0 180 0 180 -60 0 -60 0 0 240 0 240 -60 0 -60 0 0 60
0 60 -60 0 -60 0 0 60 0 60 -60 0 -60 0 0 60 0 60 -60 0 -60 0 0 60 0 60 -60
0 -60 0 0 60 0 60 -420 0 -420 0 0 -60z"/>
</g>
</svg>
